<svg width="209" height="29" viewBox="0 0 209 29" fill="none" xmlns="http://www.w3.org/2000/svg">
<path d="M4.78085 4.04001C2.03085 6.66001 0.0308524 10.39 0.000852353 14.57C-0.0691476 21.41 4.17085 27.71 13.3109 28.61V19.79L4.78085 14.7V4.46001V4.04001Z" fill="#9F784F"/>
<path d="M23.1809 4.06C25.9309 6.68 27.8309 10.39 27.8709 14.57C27.9309 21.41 23.7909 27.71 14.6309 28.61V19.79L23.1909 14.7V4.47L23.1809 4.06Z" fill="#9F784F"/>
<path d="M13.9709 0L6.21088 4.63V13.88L13.9709 18.51L21.7309 13.88V4.63L13.9709 0ZM13.9709 14.22C11.3409 14.22 9.20088 12 9.20088 9.26C9.20088 6.52 11.3409 4.3 13.9709 4.3C16.6109 4.3 18.7509 6.52 18.7509 9.26C18.7509 12 16.6109 14.22 13.9709 14.22Z" fill="#9F784F"/>
<path d="M32.8708 23.74H33.2209L35.6809 26.79H35.7009V23.74H35.9809V28.02H35.8309L33.1708 24.62H33.1509V27.92H32.8708V23.74Z" fill="#9F784F"/>
<path d="M38.4308 23.64L40.2008 27.91H39.5608L38.9908 26.52H37.3808L36.7908 27.91H36.4808L38.2908 23.64H38.4308ZM37.4808 26.25H38.8608L38.1808 24.6L37.4808 26.25Z" fill="#9F784F"/>
<path d="M43.6609 23.74V24.01H42.3008V27.92H41.6708V24.01H40.3109V23.74H43.6609Z" fill="#9F784F"/>
<path d="M44.2408 23.74H44.8708V27.92H44.2408V23.74Z" fill="#9F784F"/>
<path d="M47.7208 28.01C47.5308 28.01 47.3408 27.98 47.1608 27.93C46.9808 27.88 46.8208 27.8 46.6708 27.71C46.5208 27.61 46.3808 27.5 46.2508 27.36C46.1208 27.22 46.0208 27.07 45.9308 26.91C45.8408 26.75 45.7708 26.57 45.7308 26.38C45.6808 26.19 45.6608 26 45.6608 25.79C45.6608 25.59 45.6908 25.4 45.7308 25.22C45.7808 25.04 45.8508 24.86 45.9308 24.7C46.0208 24.54 46.1308 24.39 46.2508 24.26C46.3708 24.13 46.5108 24.02 46.6708 23.92C46.8208 23.83 46.9908 23.75 47.1608 23.7C47.3408 23.65 47.5208 23.62 47.7208 23.62C47.9108 23.62 48.1008 23.65 48.2808 23.7C48.4608 23.75 48.6208 23.82 48.7708 23.92C48.9208 24.01 49.0608 24.13 49.1908 24.26C49.3208 24.39 49.4208 24.54 49.5108 24.7C49.6008 24.86 49.6708 25.03 49.7108 25.22C49.7608 25.4 49.7808 25.6 49.7808 25.79C49.7808 25.99 49.7508 26.19 49.7108 26.38C49.6608 26.57 49.5908 26.75 49.5108 26.91C49.4208 27.07 49.3108 27.22 49.1908 27.36C49.0708 27.49 48.9308 27.61 48.7708 27.71C48.6208 27.81 48.4508 27.88 48.2808 27.93C48.1008 27.99 47.9108 28.01 47.7208 28.01ZM47.7208 27.81C47.9308 27.81 48.1208 27.76 48.2908 27.66C48.4608 27.56 48.5908 27.42 48.7108 27.24C48.8208 27.06 48.9108 26.85 48.9708 26.61C49.0308 26.36 49.0608 26.1 49.0608 25.81C49.0608 25.52 49.0308 25.26 48.9708 25.02C48.9108 24.78 48.8308 24.58 48.7108 24.4C48.6008 24.23 48.4608 24.09 48.2908 24C48.1308 23.9 47.9408 23.86 47.7208 23.86C47.5008 23.86 47.3108 23.91 47.1408 24C46.9708 24.1 46.8308 24.23 46.7208 24.4C46.6108 24.57 46.5208 24.78 46.4708 25.02C46.4108 25.26 46.3908 25.52 46.3908 25.81C46.3908 26.1 46.4208 26.37 46.4708 26.61C46.5308 26.86 46.6108 27.07 46.7208 27.24C46.8308 27.42 46.9708 27.56 47.1408 27.66C47.3108 27.76 47.5008 27.81 47.7208 27.81Z" fill="#9F784F"/>
<path d="M50.5709 23.74H50.9209L53.3809 26.79H53.4009V23.74H53.6809V28.02H53.5409L50.8809 24.62H50.8609V27.92H50.5809V23.74H50.5709Z" fill="#9F784F"/>
<path d="M56.1208 23.64L57.8908 27.91H57.2508L56.6808 26.52H55.0708L54.4808 27.91H54.1608L55.9708 23.64H56.1208ZM55.1808 26.25H56.5608L55.8808 24.6L55.1808 26.25Z" fill="#9F784F"/>
<path d="M58.3708 23.74H59.0009V27.65H60.8909V27.92H58.3708V23.74Z" fill="#9F784F"/>
<path d="M66.0108 23.74V24.01H64.6508V27.92H64.0208V24.01H62.6608V23.74H66.0108Z" fill="#9F784F"/>
<path d="M68.1009 23.64L69.8709 27.91H69.2309L68.6609 26.52H67.0509L66.4609 27.91H66.1409L67.9509 23.64H68.1009ZM67.1509 26.25H68.5309L67.8509 24.6L67.1509 26.25Z" fill="#9F784F"/>
<path d="M70.3508 23.74H70.9808V27.92H70.3508V23.74Z" fill="#9F784F"/>
<path d="M72.0808 23.74L73.2008 26.92L74.1908 24.05L75.2108 26.93L76.3008 23.74H76.6108L75.1708 27.95H74.9808L74.0608 25.35L73.1708 27.95H72.9608L71.4708 23.74H72.0808Z" fill="#9F784F"/>
<path d="M78.5809 23.64L80.3509 27.91H79.7109L79.1409 26.52H77.5309L76.9409 27.91H76.6309L78.4409 23.64H78.5809ZM77.6409 26.25H79.0209L78.3409 24.6L77.6409 26.25Z" fill="#9F784F"/>
<path d="M80.8309 23.74H81.1809L83.6409 26.79H83.6609V23.74H83.9409V28.02H83.8009L81.1409 24.62H81.1209V27.92H80.8409V23.74H80.8309Z" fill="#9F784F"/>
<path d="M86.4308 23.74H87.0608V26.45C87.0608 26.63 87.0908 26.8 87.1408 26.95C87.1908 27.11 87.2708 27.25 87.3808 27.36C87.4808 27.48 87.6108 27.57 87.7508 27.64C87.8908 27.71 88.0509 27.74 88.2309 27.74C88.4109 27.74 88.5708 27.71 88.7108 27.64C88.8508 27.57 88.9708 27.48 89.0808 27.36C89.1808 27.24 89.2608 27.1 89.3108 26.95C89.3608 26.79 89.3908 26.63 89.3908 26.45V23.74H89.6708V26.45C89.6708 26.66 89.6408 26.86 89.5808 27.05C89.5208 27.24 89.4208 27.4 89.2908 27.55C89.1608 27.69 88.9908 27.81 88.7808 27.89C88.5708 27.97 88.3208 28.01 88.0308 28.01C87.7708 28.01 87.5408 27.97 87.3408 27.89C87.1408 27.81 86.9708 27.69 86.8408 27.55C86.7008 27.41 86.6008 27.24 86.5308 27.05C86.4608 26.86 86.4308 26.65 86.4308 26.44V23.74Z" fill="#9F784F"/>
<path d="M90.5508 23.74H90.9008L93.3608 26.79H93.3808V23.74H93.6608V28.02H93.5108L90.8508 24.62H90.8308V27.92H90.5508V23.74Z" fill="#9F784F"/>
<path d="M94.6008 23.74H95.2308V27.92H94.6008V23.74Z" fill="#9F784F"/>
<path d="M96.3808 23.74L97.7908 27.06L99.1108 23.74H99.4108L97.7108 28.02H97.5508L95.7208 23.74H96.3808Z" fill="#9F784F"/>
<path d="M102.491 23.74V24.01H100.511V25.5H101.831V25.77H100.511V27.64H102.491V27.91H99.8809V23.73H102.491V23.74Z" fill="#9F784F"/>
<path d="M103.191 23.74H104.491C104.711 23.74 104.911 23.77 105.081 23.82C105.251 23.87 105.391 23.95 105.501 24.05C105.611 24.15 105.701 24.26 105.761 24.4C105.821 24.53 105.851 24.68 105.851 24.84C105.851 24.97 105.831 25.09 105.781 25.2C105.741 25.31 105.671 25.41 105.591 25.51C105.511 25.6 105.411 25.68 105.301 25.75C105.191 25.82 105.061 25.87 104.931 25.9L106.291 27.93H105.561L104.261 25.97H103.821V27.93H103.191V23.74ZM103.821 25.74H104.181C104.321 25.74 104.451 25.72 104.571 25.68C104.691 25.64 104.791 25.58 104.881 25.5C104.971 25.42 105.041 25.33 105.091 25.22C105.141 25.11 105.161 24.99 105.161 24.85C105.161 24.73 105.141 24.61 105.101 24.51C105.061 24.41 105.011 24.32 104.941 24.24C104.871 24.16 104.791 24.11 104.691 24.06C104.591 24.02 104.491 24 104.371 24H103.821V25.74Z" fill="#9F784F"/>
<path d="M107.791 27.75C107.881 27.75 107.981 27.74 108.071 27.71C108.161 27.68 108.241 27.64 108.311 27.58C108.381 27.52 108.441 27.46 108.481 27.37C108.521 27.29 108.541 27.2 108.541 27.09C108.541 26.96 108.511 26.85 108.451 26.75C108.391 26.65 108.311 26.56 108.221 26.48C108.121 26.4 108.011 26.32 107.891 26.24C107.771 26.17 107.641 26.09 107.511 26.02C107.381 25.95 107.261 25.87 107.131 25.79C107.011 25.71 106.901 25.62 106.801 25.52C106.701 25.42 106.631 25.31 106.571 25.19C106.511 25.07 106.481 24.93 106.481 24.77C106.481 24.61 106.511 24.46 106.561 24.33C106.611 24.19 106.691 24.07 106.801 23.97C106.901 23.87 107.031 23.79 107.181 23.73C107.331 23.67 107.511 23.65 107.701 23.65C108.061 23.65 108.341 23.73 108.541 23.9C108.751 24.07 108.891 24.3 108.991 24.62L108.671 24.78C108.631 24.65 108.591 24.54 108.531 24.43C108.471 24.32 108.401 24.23 108.321 24.16C108.241 24.08 108.141 24.02 108.041 23.98C107.931 23.94 107.821 23.92 107.681 23.92C107.561 23.92 107.461 23.94 107.371 23.98C107.281 24.02 107.211 24.06 107.151 24.12C107.091 24.18 107.051 24.25 107.021 24.32C106.991 24.39 106.981 24.47 106.981 24.55C106.981 24.66 107.011 24.76 107.071 24.85C107.131 24.94 107.211 25.03 107.311 25.11C107.411 25.19 107.521 25.27 107.651 25.35C107.781 25.42 107.911 25.5 108.041 25.58C108.171 25.66 108.301 25.74 108.431 25.82C108.561 25.9 108.671 26 108.771 26.1C108.871 26.2 108.951 26.31 109.011 26.43C109.071 26.55 109.101 26.68 109.101 26.83C109.101 27 109.071 27.15 109.011 27.3C108.951 27.44 108.871 27.57 108.761 27.68C108.651 27.79 108.511 27.88 108.341 27.94C108.171 28 107.981 28.03 107.751 28.03C107.571 28.03 107.411 28.01 107.271 27.97C107.131 27.93 107.001 27.86 106.891 27.78C106.781 27.7 106.691 27.59 106.611 27.47C106.531 27.35 106.471 27.21 106.421 27.06L106.761 26.9C106.801 27.03 106.851 27.16 106.921 27.27C106.991 27.38 107.061 27.47 107.151 27.55C107.241 27.62 107.341 27.68 107.451 27.72C107.561 27.73 107.671 27.75 107.791 27.75Z" fill="#9F784F"/>
<path d="M109.801 23.74H110.431V27.92H109.801V23.74Z" fill="#9F784F"/>
<path d="M114.361 23.74V24.01H113.001V27.92H112.371V24.01H111.011V23.74H114.361Z" fill="#9F784F"/>
<path d="M115.121 23.74L116.421 25.86L117.721 23.74H118.061L116.611 26.11V27.92H115.981V26.18L114.481 23.74H115.121Z" fill="#9F784F"/>
<path d="M122.061 28.01C121.871 28.01 121.681 27.98 121.501 27.93C121.321 27.88 121.161 27.8 121.011 27.71C120.861 27.61 120.721 27.5 120.591 27.36C120.461 27.22 120.361 27.07 120.271 26.91C120.181 26.75 120.111 26.57 120.071 26.38C120.021 26.19 120.001 26 120.001 25.79C120.001 25.59 120.021 25.4 120.071 25.22C120.121 25.04 120.191 24.86 120.271 24.7C120.361 24.54 120.471 24.39 120.591 24.26C120.711 24.13 120.851 24.02 121.011 23.92C121.161 23.83 121.331 23.75 121.501 23.7C121.681 23.65 121.861 23.62 122.061 23.62C122.251 23.62 122.441 23.65 122.621 23.7C122.801 23.75 122.961 23.82 123.111 23.92C123.261 24.01 123.401 24.13 123.531 24.26C123.661 24.39 123.761 24.54 123.851 24.7C123.941 24.86 124.011 25.03 124.051 25.22C124.101 25.4 124.121 25.6 124.121 25.79C124.121 25.99 124.091 26.19 124.051 26.38C124.001 26.57 123.931 26.75 123.851 26.91C123.761 27.07 123.651 27.22 123.531 27.36C123.411 27.49 123.271 27.61 123.111 27.71C122.961 27.81 122.791 27.88 122.621 27.93C122.441 27.99 122.261 28.01 122.061 28.01ZM122.061 27.81C122.271 27.81 122.461 27.76 122.631 27.66C122.801 27.56 122.931 27.42 123.051 27.24C123.161 27.06 123.251 26.85 123.311 26.61C123.371 26.36 123.401 26.1 123.401 25.81C123.401 25.52 123.371 25.26 123.311 25.02C123.251 24.78 123.171 24.58 123.051 24.4C122.941 24.23 122.801 24.09 122.631 24C122.471 23.9 122.281 23.86 122.061 23.86C121.841 23.86 121.651 23.91 121.481 24C121.311 24.1 121.181 24.23 121.061 24.4C120.951 24.57 120.861 24.78 120.811 25.02C120.751 25.26 120.731 25.52 120.731 25.81C120.731 26.1 120.761 26.37 120.811 26.61C120.871 26.86 120.951 27.07 121.061 27.24C121.171 27.42 121.311 27.56 121.481 27.66C121.651 27.76 121.841 27.81 122.061 27.81Z" fill="#9F784F"/>
<path d="M127.371 23.74V24.01H125.541V25.5H126.861V25.77H125.541V27.91H124.911V23.73H127.371V23.74Z" fill="#9F784F"/>
<path d="M130.511 27.75C130.601 27.75 130.701 27.74 130.791 27.71C130.881 27.68 130.961 27.64 131.031 27.58C131.101 27.52 131.161 27.46 131.201 27.37C131.241 27.29 131.261 27.2 131.261 27.09C131.261 26.96 131.231 26.85 131.171 26.75C131.111 26.65 131.031 26.56 130.941 26.48C130.841 26.4 130.731 26.32 130.611 26.24C130.491 26.17 130.361 26.09 130.231 26.02C130.101 25.95 129.981 25.87 129.851 25.79C129.731 25.71 129.621 25.62 129.521 25.52C129.431 25.42 129.351 25.31 129.291 25.19C129.231 25.07 129.201 24.93 129.201 24.77C129.201 24.61 129.231 24.46 129.281 24.33C129.341 24.19 129.411 24.07 129.521 23.97C129.621 23.87 129.751 23.79 129.901 23.73C130.051 23.67 130.231 23.65 130.421 23.65C130.781 23.65 131.061 23.73 131.261 23.9C131.471 24.07 131.611 24.3 131.711 24.62L131.391 24.78C131.351 24.65 131.301 24.54 131.241 24.43C131.181 24.32 131.111 24.23 131.031 24.16C130.951 24.08 130.861 24.02 130.751 23.98C130.641 23.94 130.521 23.92 130.391 23.92C130.271 23.92 130.171 23.94 130.081 23.98C129.991 24.02 129.921 24.06 129.861 24.12C129.801 24.18 129.761 24.25 129.731 24.32C129.701 24.39 129.691 24.47 129.691 24.55C129.691 24.66 129.721 24.76 129.781 24.85C129.841 24.94 129.921 25.03 130.021 25.11C130.121 25.19 130.231 25.27 130.361 25.35C130.491 25.42 130.621 25.5 130.751 25.58C130.881 25.66 131.011 25.74 131.141 25.82C131.271 25.9 131.381 26 131.481 26.1C131.581 26.2 131.661 26.31 131.721 26.43C131.781 26.55 131.811 26.68 131.811 26.83C131.811 27 131.781 27.15 131.731 27.3C131.671 27.44 131.591 27.57 131.471 27.68C131.361 27.79 131.221 27.88 131.051 27.94C130.881 28 130.691 28.03 130.461 28.03C130.281 28.03 130.121 28.01 129.981 27.97C129.841 27.93 129.711 27.86 129.601 27.78C129.491 27.7 129.401 27.59 129.321 27.47C129.241 27.35 129.181 27.21 129.131 27.06L129.471 26.9C129.511 27.03 129.561 27.16 129.631 27.27C129.701 27.38 129.771 27.47 129.861 27.55C129.951 27.62 130.051 27.68 130.161 27.72C130.271 27.73 130.381 27.75 130.511 27.75Z" fill="#9F784F"/>
<path d="M133.091 25.84C133.091 26.13 133.131 26.4 133.211 26.63C133.291 26.86 133.401 27.06 133.541 27.22C133.681 27.38 133.841 27.5 134.031 27.59C134.221 27.68 134.421 27.72 134.651 27.72C134.781 27.72 134.911 27.69 135.031 27.63C135.151 27.57 135.271 27.5 135.371 27.41C135.481 27.32 135.571 27.22 135.651 27.1C135.731 26.98 135.801 26.87 135.851 26.75L136.111 26.94C136.031 27.08 135.941 27.22 135.841 27.35C135.731 27.48 135.611 27.59 135.481 27.69C135.341 27.79 135.181 27.87 135.011 27.93C134.841 27.99 134.641 28.02 134.431 28.02C134.221 28.02 134.031 27.99 133.851 27.94C133.671 27.89 133.501 27.81 133.341 27.72C133.191 27.62 133.051 27.51 132.931 27.38C132.811 27.24 132.701 27.1 132.621 26.94C132.541 26.78 132.471 26.61 132.431 26.42C132.381 26.24 132.361 26.05 132.361 25.85C132.361 25.66 132.381 25.46 132.431 25.28C132.481 25.09 132.541 24.92 132.631 24.76C132.711 24.6 132.821 24.45 132.941 24.31C133.061 24.18 133.201 24.06 133.361 23.96C133.511 23.86 133.681 23.79 133.871 23.73C134.061 23.68 134.251 23.65 134.461 23.65C134.661 23.65 134.841 23.68 135.011 23.74C135.181 23.8 135.331 23.88 135.471 23.98C135.611 24.08 135.731 24.19 135.841 24.32C135.951 24.45 136.041 24.58 136.121 24.72L135.851 24.93C135.691 24.59 135.521 24.34 135.321 24.18C135.131 24.02 134.901 23.94 134.651 23.94C134.431 23.94 134.231 23.98 134.041 24.07C133.851 24.16 133.691 24.28 133.551 24.45C133.411 24.61 133.301 24.81 133.221 25.05C133.131 25.28 133.091 25.55 133.091 25.84Z" fill="#9F784F"/>
<path d="M136.891 23.74H137.521V27.92H136.891V23.74Z" fill="#9F784F"/>
<path d="M141.071 23.74V24.01H139.091V25.5H140.411V25.77H139.091V27.64H141.071V27.91H138.461V23.73H141.071V23.74Z" fill="#9F784F"/>
<path d="M141.771 23.74H142.121L144.581 26.79H144.601V23.74H144.881V28.02H144.731L142.071 24.62H142.051V27.92H141.771V23.74Z" fill="#9F784F"/>
<path d="M146.401 25.84C146.401 26.13 146.441 26.4 146.521 26.63C146.601 26.86 146.711 27.06 146.841 27.22C146.981 27.38 147.141 27.5 147.331 27.59C147.521 27.68 147.721 27.72 147.941 27.72C148.071 27.72 148.201 27.69 148.321 27.63C148.441 27.57 148.551 27.5 148.661 27.41C148.761 27.32 148.861 27.22 148.941 27.1C149.021 26.98 149.091 26.87 149.141 26.75L149.401 26.94C149.321 27.08 149.231 27.22 149.131 27.35C149.021 27.48 148.901 27.59 148.761 27.69C148.621 27.79 148.471 27.87 148.291 27.93C148.121 27.99 147.921 28.02 147.711 28.02C147.501 28.02 147.311 27.99 147.131 27.94C146.951 27.89 146.781 27.81 146.631 27.72C146.481 27.62 146.341 27.51 146.221 27.38C146.101 27.24 146.001 27.1 145.911 26.94C145.831 26.78 145.761 26.61 145.721 26.42C145.671 26.24 145.651 26.05 145.651 25.85C145.651 25.66 145.671 25.46 145.721 25.28C145.771 25.09 145.831 24.92 145.921 24.76C146.001 24.6 146.111 24.45 146.231 24.31C146.351 24.18 146.491 24.06 146.651 23.96C146.811 23.86 146.981 23.79 147.161 23.73C147.341 23.68 147.541 23.65 147.751 23.65C147.951 23.65 148.131 23.68 148.301 23.74C148.471 23.8 148.621 23.88 148.761 23.98C148.901 24.08 149.021 24.19 149.131 24.32C149.241 24.45 149.331 24.58 149.411 24.72L149.141 24.93C148.981 24.59 148.811 24.34 148.611 24.18C148.421 24.02 148.191 23.94 147.941 23.94C147.721 23.94 147.521 23.98 147.331 24.07C147.141 24.16 146.981 24.28 146.841 24.45C146.701 24.61 146.591 24.81 146.511 25.05C146.441 25.28 146.401 25.55 146.401 25.84Z" fill="#9F784F"/>
<path d="M152.811 23.74V24.01H150.831V25.5H152.151V25.77H150.831V27.64H152.811V27.91H150.201V23.73H152.811V23.74Z" fill="#9F784F"/>
<path d="M156.631 23.64L158.391 27.91H157.751L157.181 26.52H155.571L154.981 27.91H154.661L156.471 23.64H156.631ZM155.681 26.25H157.061L156.381 24.6L155.681 26.25Z" fill="#9F784F"/>
<path d="M158.881 23.74H159.231L161.691 26.79H161.721V23.74H162.001V28.02H161.861L159.201 24.62H159.181V27.92H158.901V23.74H158.881Z" fill="#9F784F"/>
<path d="M162.931 23.74H164.181C164.571 23.74 164.901 23.78 165.171 23.86C165.451 23.94 165.681 24.07 165.861 24.24C166.071 24.44 166.231 24.67 166.341 24.93C166.451 25.19 166.501 25.48 166.501 25.79C166.501 26.08 166.451 26.36 166.361 26.62C166.261 26.88 166.121 27.1 165.941 27.29C165.761 27.48 165.531 27.64 165.261 27.75C164.991 27.86 164.681 27.92 164.331 27.92H162.931V23.74ZM163.561 27.61H164.231C164.441 27.61 164.641 27.57 164.831 27.49C165.021 27.41 165.181 27.3 165.321 27.14C165.461 26.99 165.571 26.8 165.651 26.57C165.731 26.34 165.771 26.09 165.771 25.79C165.771 25.53 165.731 25.3 165.661 25.08C165.591 24.87 165.481 24.68 165.341 24.53C165.201 24.37 165.041 24.25 164.861 24.17C164.671 24.08 164.471 24.04 164.241 24.04H163.571V27.61H163.561Z" fill="#9F784F"/>
<path d="M171.881 23.74V24.01H170.521V27.92H169.891V24.01H168.531V23.74H171.881Z" fill="#9F784F"/>
<path d="M175.071 23.74V24.01H173.091V25.5H174.411V25.77H173.091V27.64H175.071V27.91H172.461V23.73H175.071V23.74Z" fill="#9F784F"/>
<path d="M176.341 25.84C176.341 26.13 176.381 26.4 176.461 26.63C176.541 26.86 176.651 27.06 176.791 27.22C176.931 27.38 177.091 27.5 177.281 27.59C177.471 27.68 177.671 27.72 177.901 27.72C178.031 27.72 178.161 27.69 178.281 27.63C178.401 27.57 178.521 27.5 178.621 27.41C178.721 27.32 178.821 27.22 178.901 27.1C178.981 26.98 179.051 26.87 179.101 26.75L179.361 26.94C179.281 27.08 179.191 27.22 179.091 27.35C178.991 27.48 178.861 27.59 178.731 27.69C178.591 27.79 178.441 27.87 178.261 27.93C178.091 27.99 177.891 28.02 177.681 28.02C177.471 28.02 177.281 27.99 177.101 27.94C176.921 27.89 176.751 27.81 176.601 27.72C176.451 27.62 176.311 27.51 176.191 27.38C176.071 27.24 175.971 27.1 175.881 26.94C175.801 26.78 175.731 26.61 175.691 26.42C175.651 26.24 175.621 26.05 175.621 25.85C175.621 25.66 175.641 25.46 175.691 25.28C175.741 25.09 175.801 24.92 175.891 24.76C175.971 24.6 176.081 24.45 176.201 24.31C176.321 24.18 176.461 24.06 176.621 23.96C176.781 23.86 176.951 23.79 177.131 23.73C177.311 23.68 177.511 23.65 177.721 23.65C177.921 23.65 178.101 23.68 178.271 23.74C178.441 23.8 178.591 23.88 178.731 23.98C178.871 24.08 178.991 24.19 179.101 24.32C179.211 24.45 179.301 24.58 179.381 24.72L179.111 24.93C178.951 24.59 178.781 24.34 178.581 24.18C178.391 24.02 178.161 23.94 177.911 23.94C177.691 23.94 177.491 23.98 177.301 24.07C177.111 24.16 176.951 24.28 176.811 24.45C176.671 24.61 176.561 24.81 176.481 25.05C176.381 25.28 176.341 25.55 176.341 25.84Z" fill="#9F784F"/>
<path d="M180.771 25.91V27.91H180.141V23.73H180.771V25.63H182.651V23.73H183.281V27.91H182.651V25.91H180.771Z" fill="#9F784F"/>
<path d="M184.231 23.74H184.581L187.041 26.79H187.071V23.74H187.351V28.02H187.201L184.541 24.62H184.521V27.92H184.241V23.74H184.231Z" fill="#9F784F"/>
<path d="M190.191 28.01C190.001 28.01 189.811 27.98 189.631 27.93C189.451 27.88 189.291 27.8 189.131 27.71C188.981 27.61 188.841 27.5 188.711 27.36C188.581 27.22 188.481 27.07 188.391 26.91C188.301 26.75 188.231 26.57 188.181 26.38C188.131 26.19 188.111 26 188.111 25.79C188.111 25.59 188.131 25.4 188.181 25.22C188.231 25.04 188.301 24.86 188.391 24.7C188.481 24.54 188.581 24.39 188.711 24.26C188.841 24.13 188.971 24.02 189.131 23.92C189.281 23.83 189.451 23.75 189.631 23.7C189.811 23.65 189.991 23.62 190.191 23.62C190.381 23.62 190.571 23.65 190.751 23.7C190.931 23.75 191.091 23.82 191.251 23.92C191.401 24.01 191.541 24.13 191.671 24.26C191.801 24.39 191.901 24.54 191.991 24.7C192.081 24.86 192.151 25.03 192.191 25.22C192.241 25.4 192.261 25.6 192.261 25.79C192.261 25.99 192.241 26.19 192.191 26.38C192.141 26.57 192.071 26.75 191.991 26.91C191.901 27.07 191.801 27.22 191.671 27.36C191.541 27.49 191.411 27.61 191.251 27.71C191.101 27.81 190.931 27.88 190.751 27.93C190.571 27.99 190.381 28.01 190.191 28.01ZM190.191 27.81C190.401 27.81 190.591 27.76 190.761 27.66C190.921 27.56 191.061 27.42 191.181 27.24C191.291 27.06 191.381 26.85 191.441 26.61C191.501 26.36 191.531 26.1 191.531 25.81C191.531 25.52 191.501 25.26 191.441 25.02C191.381 24.78 191.301 24.58 191.181 24.4C191.061 24.22 190.931 24.09 190.761 24C190.591 23.9 190.401 23.86 190.191 23.86C189.971 23.86 189.781 23.91 189.611 24C189.451 24.1 189.311 24.23 189.191 24.4C189.081 24.57 189.001 24.78 188.941 25.02C188.881 25.26 188.851 25.52 188.851 25.81C188.851 26.1 188.881 26.37 188.941 26.61C189.001 26.86 189.081 27.07 189.191 27.24C189.301 27.42 189.441 27.56 189.611 27.66C189.781 27.76 189.971 27.81 190.191 27.81Z" fill="#9F784F"/>
<path d="M193.041 23.74H193.671V27.65H195.561V27.92H193.041V23.74Z" fill="#9F784F"/>
<path d="M197.981 28.01C197.791 28.01 197.601 27.98 197.421 27.93C197.241 27.88 197.081 27.8 196.931 27.71C196.781 27.61 196.641 27.5 196.511 27.36C196.381 27.22 196.281 27.07 196.191 26.91C196.101 26.75 196.031 26.57 195.991 26.38C195.941 26.19 195.921 26 195.921 25.79C195.921 25.59 195.941 25.4 195.991 25.22C196.041 25.04 196.111 24.86 196.191 24.7C196.281 24.54 196.381 24.39 196.511 24.26C196.641 24.13 196.781 24.02 196.931 23.92C197.081 23.83 197.251 23.75 197.421 23.7C197.601 23.65 197.781 23.62 197.981 23.62C198.171 23.62 198.361 23.65 198.541 23.7C198.721 23.75 198.881 23.82 199.041 23.92C199.191 24.01 199.331 24.13 199.461 24.26C199.591 24.39 199.691 24.54 199.781 24.7C199.871 24.86 199.941 25.03 199.981 25.22C200.031 25.4 200.051 25.6 200.051 25.79C200.051 25.99 200.031 26.19 199.981 26.38C199.931 26.57 199.861 26.75 199.781 26.91C199.691 27.07 199.591 27.22 199.461 27.36C199.331 27.49 199.201 27.61 199.041 27.71C198.891 27.81 198.721 27.88 198.541 27.93C198.361 27.99 198.181 28.01 197.981 28.01ZM197.981 27.81C198.191 27.81 198.381 27.76 198.551 27.66C198.721 27.56 198.851 27.42 198.971 27.24C199.081 27.06 199.171 26.85 199.231 26.61C199.291 26.36 199.321 26.1 199.321 25.81C199.321 25.52 199.291 25.26 199.231 25.02C199.171 24.78 199.091 24.58 198.971 24.4C198.861 24.23 198.721 24.09 198.551 24C198.381 23.9 198.201 23.86 197.981 23.86C197.761 23.86 197.571 23.91 197.401 24C197.231 24.1 197.101 24.23 196.981 24.4C196.871 24.57 196.781 24.78 196.731 25.02C196.671 25.26 196.641 25.52 196.641 25.81C196.641 26.1 196.671 26.37 196.731 26.61C196.791 26.86 196.871 27.07 196.981 27.24C197.091 27.42 197.231 27.56 197.401 27.66C197.571 27.76 197.771 27.81 197.981 27.81Z" fill="#9F784F"/>
<path d="M202.971 23.94C202.741 23.94 202.541 23.98 202.351 24.08C202.161 24.17 201.991 24.3 201.861 24.46C201.721 24.63 201.611 24.83 201.541 25.06C201.461 25.3 201.421 25.56 201.421 25.86C201.421 26.15 201.461 26.42 201.541 26.65C201.631 26.89 201.741 27.09 201.891 27.25C202.031 27.42 202.211 27.55 202.401 27.64C202.601 27.73 202.811 27.77 203.041 27.77C203.211 27.77 203.351 27.75 203.491 27.7C203.621 27.65 203.741 27.58 203.841 27.49V26.02H203.131V25.77H204.471V27.61C204.361 27.68 204.251 27.73 204.141 27.78C204.031 27.83 203.911 27.87 203.781 27.91C203.651 27.95 203.511 27.97 203.361 27.99C203.201 28.01 203.031 28.02 202.831 28.02C202.621 28.02 202.431 27.99 202.241 27.94C202.051 27.89 201.881 27.82 201.721 27.72C201.561 27.63 201.421 27.51 201.291 27.38C201.161 27.25 201.051 27.1 200.961 26.94C200.871 26.78 200.801 26.61 200.751 26.43C200.701 26.25 200.681 26.06 200.681 25.86C200.681 25.66 200.701 25.47 200.751 25.29C200.801 25.1 200.861 24.93 200.951 24.76C201.041 24.6 201.141 24.44 201.271 24.31C201.391 24.17 201.531 24.05 201.691 23.96C201.851 23.86 202.021 23.78 202.201 23.73C202.381 23.68 202.581 23.65 202.791 23.65C202.991 23.65 203.171 23.68 203.341 23.74C203.511 23.8 203.661 23.88 203.801 23.98C203.941 24.08 204.061 24.19 204.171 24.32C204.281 24.45 204.371 24.58 204.451 24.72L204.181 24.93C204.021 24.59 203.851 24.34 203.651 24.18C203.441 24.02 203.221 23.94 202.971 23.94Z" fill="#9F784F"/>
<path d="M205.521 23.74L206.821 25.86L208.121 23.74H208.461L207.001 26.11V27.92H206.371V26.18L204.871 23.74H205.521Z" fill="#9F784F"/>
<path d="M37.2409 19.17H43.0209V6.58998H48.4209V4.47998H31.7509V6.58998H37.2409V19.17Z" fill="#9F784F"/>
<path d="M158.981 4.47998H142.311V6.58998H147.801V19.17H153.581V6.58998H158.981V4.47998Z" fill="#9F784F"/>
<path d="M173.861 17.07H166.041V12.89H172.231V10.78H166.041V6.59998H173.861V4.47998H160.261V19.18H173.861V17.07Z" fill="#9F784F"/>
<path d="M51.1609 19.15L52.7609 14.54H57.1309L58.7109 19.15H64.9309L59.0509 4.47998H52.9809L46.6309 19.14H51.1609V19.15ZM56.4109 12.43H53.4909L54.9609 8.18998L56.4109 12.43Z" fill="#9F784F"/>
<path d="M101.361 19.15L102.961 14.54H107.331L108.911 19.15H115.131L109.251 4.48999H103.181L96.8309 19.15H101.361ZM106.601 12.43H103.681L105.151 8.18999L106.601 12.43Z" fill="#9F784F"/>
<path d="M72.4309 4.47998H66.6609V19.16H72.4309V4.47998Z" fill="#9F784F"/>
<path d="M94.9009 4.47998L92.1909 13.75L89.6309 4.47998H85.0809L82.3409 13.75L79.9209 4.47998H74.5009L78.7209 19.11H84.1009L86.3709 11.43L88.5209 19.11H94.0109L98.9309 4.47998H94.9009Z" fill="#9F784F"/>
<path d="M128.841 13.42L123.411 4.47998H117.111V19.15H120.621V9.70998L126.201 19.16H129.191C130.911 19.16 132.311 17.76 132.311 16.04V4.47998H128.841V13.42Z" fill="#9F784F"/>
<path d="M198.341 12.4H202.531V19.16H205.181C206.901 19.16 208.301 17.76 208.301 16.04V4.47998H202.531V10.29H198.341V4.47998H192.571V19.16H198.341V12.4Z" fill="#9F784F"/>
<path d="M190.701 16.4C190.701 16.4 184.391 17.78 182.691 16.61C182.691 16.61 180.811 15.79 180.811 11.99C180.811 9.04999 181.691 7.74999 182.641 7.10999C183.811 6.44999 185.591 6.06999 190.701 7.13999V4.85999C190.701 4.85999 180.591 2.57999 176.671 7.24999C172.741 11.92 175.821 16.14 176.061 16.43C176.301 16.72 179.561 21.2 190.701 18.42V16.4Z" fill="#9F784F"/>
</svg>
